<svg width="280" height="84" viewBox="0 0 280 84" fill="none" xmlns="http://www.w3.org/2000/svg">
<path d="M68.7144 81.817C66.1762 80.5416 64.0205 78.7437 62.2531 76.4234L58.5616 82.1068H54.7543V14.4973C54.7543 11.9464 54.2521 10.1111 53.2537 8.98937C52.2534 7.86964 50.4448 7.23092 47.8301 7.07518L46.4453 6.95887V4.63859L62.3669 0H64.4442V33.7476C66.5979 30.0355 69.193 27.1948 72.2333 25.2235C75.2717 23.2521 78.367 22.2664 81.5231 22.2664C86.6759 22.2664 91.1188 23.465 94.8515 25.8622C98.5823 28.2593 101.409 31.6225 103.333 35.9516C105.255 40.2826 106.219 45.3076 106.219 51.0285C106.219 57.6778 104.93 63.4775 102.352 68.4237C99.7749 73.3718 96.3697 77.1607 92.1407 79.7885C87.9097 82.4163 83.4081 83.7312 78.6396 83.7312C74.5616 83.7312 71.2545 83.0925 68.7163 81.817H68.7144ZM66.0604 69.8154C67.1373 72.599 68.8301 74.939 71.1368 76.8315C73.4455 78.726 76.3682 79.6722 79.9068 79.6722C82.9824 79.6722 85.7148 78.6491 88.1 76.5989C90.4832 74.5506 92.3879 71.6902 93.8119 68.0176C95.234 64.3469 95.9461 60.1519 95.9461 55.4344C95.9461 50.2557 95.2536 45.6545 93.8688 41.633C92.484 37.6134 90.5029 34.5006 87.9254 32.2967C85.348 30.0927 82.29 28.9907 78.7514 28.9907C75.7503 28.9907 72.9826 29.726 70.4425 31.1947C67.9043 32.6633 65.9016 34.7135 64.4422 37.3414V61.5791C64.4422 64.2858 64.9796 67.0299 66.0585 69.8135L66.0604 69.8154Z" fill="black"/>
<path d="M128.66 77.3519C130.006 78.2804 132.064 79.0157 134.833 79.5559V82.1068H108.639V79.5559C111.483 79.0157 113.582 78.2804 114.928 77.3519C116.273 76.4234 116.946 74.801 116.946 72.4807V14.4973C116.946 12.1021 116.426 10.3043 115.389 9.1037C114.351 7.90512 112.521 7.23092 109.908 7.07518L108.639 6.95887V4.63859L124.565 0H126.642V72.4827C126.642 74.803 127.315 76.4254 128.662 77.3539L128.66 77.3519Z" fill="black"/>
<path d="M176.49 25.9784C179.797 28.4544 182.278 31.7958 183.932 36.0106C185.585 40.2253 186.413 44.8817 186.413 49.9855H146.602C146.833 57.796 148.756 63.9999 152.371 68.599C155.986 73.2002 160.754 75.4987 166.68 75.4987C170.372 75.4987 173.641 74.59 176.488 72.7743C179.332 70.9587 181.833 68.5418 183.988 65.5257L186.066 66.5685C184.449 71.5166 181.566 75.6151 177.411 78.8619C173.257 82.1087 168.334 83.7331 162.641 83.7331C157.565 83.7331 153.063 82.4182 149.14 79.7904C145.217 77.1626 142.196 73.6062 140.082 69.1214C137.965 64.6386 136.908 59.7674 136.908 54.5098C136.908 47.9392 138.081 42.1987 140.427 37.288C142.773 32.3794 146.023 28.6476 150.178 26.0967C154.332 23.5457 159.063 22.2703 164.371 22.2703C169.14 22.2703 173.179 23.5083 176.488 25.9823L176.49 25.9784ZM151.333 31.719C148.717 35.1609 147.179 39.8567 146.718 45.8102H175.913C175.526 39.8567 174.277 35.1609 172.162 31.719C170.046 28.2789 166.796 26.558 162.412 26.558C157.641 26.558 153.948 28.2789 151.333 31.719Z" fill="black"/>
<path d="M198.876 80.715C194.722 78.7062 191.491 75.9226 189.183 72.3643L198.068 66.2177C199.375 70.3161 201.395 73.5826 204.125 76.0173C206.856 78.4519 209.914 79.6702 213.299 79.6702C216.685 79.6702 219.761 78.6668 222.069 76.654C224.378 74.6452 225.492 72.1712 225.416 69.2319C225.337 64.4395 222.53 60.9226 216.993 58.6792L205.801 54.3876C201.338 52.6883 197.876 50.6755 195.414 48.3572C192.951 46.0369 191.682 42.9064 191.607 38.9637C191.529 33.8619 193.337 29.8029 197.031 26.7867C200.722 23.7705 205.608 22.2644 211.685 22.2644C217.377 22.2644 221.993 23.1929 225.531 25.048C229.068 26.903 231.647 29.0695 233.264 31.5416L224.725 37.4556C223.493 33.9762 221.685 31.2321 219.302 29.2213C216.916 27.2125 214.147 26.2071 210.993 26.2071C207.607 26.2071 204.894 27.039 202.858 28.7009C200.818 30.3647 199.8 32.5864 199.8 35.37C199.8 37.846 200.589 39.8173 202.166 41.284C203.741 42.7527 206.069 44.0676 209.147 45.2267L220.686 49.6347C224.686 51.1822 227.82 53.2107 230.092 55.7222C232.359 58.2357 233.534 61.5022 233.611 65.5218C233.611 68.8475 232.746 71.9011 231.014 74.6827C229.284 77.4662 226.802 79.6702 223.572 81.2926C220.341 82.917 216.571 83.7272 212.264 83.7272C207.493 83.7272 203.033 82.7218 198.878 80.7111L198.876 80.715Z" fill="black"/>
<path d="M245.266 80.715C241.111 78.7062 237.88 75.9226 235.572 72.3643L244.457 66.2177C245.764 70.3161 247.784 73.5826 250.515 76.0173C253.245 78.4519 256.303 79.6702 259.689 79.6702C263.074 79.6702 266.15 78.6668 268.459 76.654C270.767 74.6452 271.881 72.1712 271.805 69.2319C271.728 64.4395 268.919 60.9226 263.382 58.6792L252.19 54.3876C247.727 52.6883 244.265 50.6755 241.804 48.3572C239.34 46.0369 238.071 42.9064 237.996 38.9637C237.92 33.8619 239.726 29.8029 243.42 26.7867C247.111 23.7705 251.997 22.2644 258.074 22.2644C263.767 22.2644 268.382 23.1929 271.921 25.048C275.459 26.903 278.037 29.0695 279.653 31.5416L271.114 37.4556C269.883 33.9762 268.074 31.2321 265.691 29.2213C263.306 27.2125 260.536 26.2071 257.382 26.2071C253.996 26.2071 251.283 27.039 249.247 28.7009C247.207 30.3647 246.189 32.5864 246.189 35.37C246.189 37.846 246.978 39.8173 248.555 41.284C250.132 42.7527 252.458 44.0676 255.536 45.2267L267.076 49.6347C271.075 51.1822 274.21 53.2107 276.481 55.7222C278.749 58.2357 279.924 61.5022 280 65.5218C280 68.8475 279.135 71.9011 277.403 74.6827C275.673 77.4662 273.192 79.6702 269.961 81.2926C266.73 82.917 262.96 83.7272 258.653 83.7272C253.883 83.7272 249.422 82.7218 245.268 80.7111L245.266 80.715Z" fill="black"/>
<g clip-path="url(#clip0_22_19)">
<path d="M14.2471 21.5315L7.65441 14.9599C7.45884 14.765 7.14175 14.765 6.94617 14.9599L0.353473 21.5315C0.157899 21.7265 0.157899 22.0426 0.353473 22.2375L6.94617 28.8091C7.14175 29.0041 7.45884 29.0041 7.65441 28.8091L14.2471 22.2375C14.4427 22.0426 14.4427 21.7265 14.2471 21.5315Z" fill="black"/>
<path d="M29.1197 35.9073L22.527 29.3357C22.3314 29.1407 22.0143 29.1407 21.8187 29.3357L15.226 35.9073C15.0305 36.1022 15.0305 36.4183 15.226 36.6132L21.8187 43.1849C22.0143 43.3798 22.3314 43.3798 22.527 43.1849L29.1197 36.6132C29.3152 36.4183 29.3152 36.1022 29.1197 35.9073Z" fill="black"/>
<path d="M7.30323 30.7744H7.30102C4.01738 30.7744 1.35547 33.4278 1.35547 36.701V36.7032C1.35547 39.9763 4.01738 42.6297 7.30102 42.6297H7.30323C10.5869 42.6297 13.2488 39.9763 13.2488 36.7032V36.701C13.2488 33.4278 10.5869 30.7744 7.30323 30.7744Z" fill="black"/>
<path d="M7.30323 0.669922H7.30102C4.01738 0.669922 1.35547 3.32332 1.35547 6.59646V6.59866C1.35547 9.8718 4.01738 12.5252 7.30102 12.5252H7.30323C10.5869 12.5252 13.2488 9.8718 13.2488 6.59866V6.59646C13.2488 3.32332 10.5869 0.669922 7.30323 0.669922Z" fill="black"/>
<path d="M22.1709 15.5149H22.1687C18.8851 15.5149 16.2231 18.1683 16.2231 21.4414V21.4436C16.2231 24.7168 18.8851 27.3702 22.1687 27.3702H22.1709C25.4545 27.3702 28.1165 24.7168 28.1165 21.4436V21.4414C28.1165 18.1683 25.4545 15.5149 22.1709 15.5149Z" fill="black"/>
</g>
<defs>
<clipPath id="clip0_22_19">
<rect width="29.4734" height="42.8704" fill="white" transform="translate(0 0.669922)"/>
</clipPath>
</defs>
</svg>
